<svg width="584" height="584" viewBox="0 0 584 584" fill="none" xmlns="http://www.w3.org/2000/svg">
<g clip-path="url(#clip0_1_5)">
<g clip-path="url(#clip1_1_5)">
<g clip-path="url(#clip2_1_5)">
<path d="M0.0830688 291.999C0.0830688 130.778 130.778 0.0830688 291.999 0.0830688C453.22 0.0830688 583.915 130.778 583.917 291.999C583.917 453.22 453.222 583.915 291.999 583.917C130.778 583.917 0.0830688 453.222 0.0830688 291.999ZM291.999 569.619C445.324 569.619 569.618 445.325 569.619 291.999C569.619 138.675 445.325 14.3806 291.999 14.3806C138.675 14.3806 14.3806 138.675 14.3806 291.999C14.3806 445.324 138.675 569.618 291.999 569.619Z" fill="#8BD8BC"/>
<path d="M292 572.239C446.772 572.239 572.239 446.772 572.239 292C572.239 137.227 446.772 11.7597 292 11.7597C137.227 11.7597 11.7597 137.227 11.7597 292C11.7597 446.772 137.227 572.239 292 572.239Z" fill="#8BD8BC"/>
<g clip-path="url(#clip3_1_5)">
<g clip-path="url(#clip4_1_5)">
<g clip-path="url(#clip5_1_5)">
<g clip-path="url(#clip6_1_5)">
<g clip-path="url(#clip7_1_5)">
<g clip-path="url(#clip8_1_5)">
<g clip-path="url(#clip9_1_5)">
<path d="M289.424 233.229C300.472 233.229 309.847 234.572 317.55 237.26C325.223 239.947 331.418 244.351 336.136 250.471C340.823 256.592 344.257 264.728 346.436 274.879C348.586 285.031 349.661 297.571 349.661 312.499C349.661 327.428 348.586 339.968 346.436 350.119C344.257 360.271 340.823 368.407 336.136 374.527C331.418 380.648 325.223 385.052 317.55 387.739C309.847 390.426 300.472 391.77 289.424 391.77C278.825 391.77 269.017 391.591 260 391.232C250.954 390.844 242.4 390.352 234.338 389.755L242.847 373.632C249.117 373.781 256.104 373.96 263.807 374.169C271.48 374.408 280.019 374.527 289.424 374.527C299.277 374.527 307.115 372.632 312.937 368.84C318.759 365.018 322.909 358.599 325.387 349.582C327.836 340.535 329.06 328.174 329.06 312.499C329.06 296.824 327.836 284.464 325.387 275.417C322.909 266.4 318.759 259.951 312.937 256.07C307.115 252.188 299.277 250.247 289.424 250.247C280.169 250.247 271.854 250.322 264.479 250.471C257.074 250.621 249.864 250.77 242.847 250.919L234.338 235.244C242.4 234.647 250.954 234.154 260 233.766C269.017 233.408 278.825 233.229 289.424 233.229ZM234.338 235.244H254.044V389.755H234.338V235.244Z" fill="white"/>
</g>
</g>
<g clip-path="url(#clip10_1_5)">
<g clip-path="url(#clip11_1_5)">
<path d="M242.044 458.811H234.342V457.452C235.166 457.452 235.798 457.232 236.237 456.793C236.676 456.353 237.041 455.749 237.332 454.981C237.618 454.212 237.953 453.319 238.337 452.303L246.822 429.198H247.81L256.995 452.633C257.215 453.21 257.462 453.951 257.736 454.857C258.011 455.763 258.121 456.532 258.066 457.163C258.533 457.136 258.999 457.109 259.466 457.081C259.933 457.054 260.4 457.026 260.867 456.999V458.811H251.435V457.452C252.478 457.424 253.165 457.191 253.494 456.752C253.824 456.312 253.947 455.791 253.865 455.186C253.782 454.582 253.645 454.033 253.453 453.539L252.011 449.667L241.303 449.915L239.861 454.322C239.669 454.981 239.499 455.502 239.351 455.887C239.197 456.271 239.024 456.697 238.832 457.163C239.381 457.136 239.924 457.109 240.463 457.081C240.995 457.054 241.522 457.026 242.044 456.999V458.811ZM244.845 439.865L241.921 448.144H251.435L248.51 440.277C248.208 439.426 247.901 438.58 247.588 437.74C247.269 436.905 246.959 436.062 246.657 435.211H246.575C246.3 435.98 246.02 436.749 245.734 437.517C245.443 438.286 245.147 439.069 244.845 439.865ZM287.144 459.47H285.167L268.733 437.394C268.486 437.064 268.244 436.74 268.008 436.422C267.778 436.109 267.539 435.788 267.292 435.458H267.25L267.374 453.086C267.374 453.772 267.374 454.459 267.374 455.145C267.374 455.832 267.347 456.504 267.292 457.163C267.786 457.136 268.28 457.109 268.774 457.081C269.269 457.054 269.763 457.026 270.257 456.999V458.811H262.72V457.452C263.571 457.452 264.181 457.265 264.549 456.892C264.922 456.524 265.164 456.084 265.273 455.574C265.383 455.068 265.438 454.61 265.438 454.198L265.479 434.387C265.479 433.92 265.479 433.454 265.479 432.987C265.479 432.52 265.479 432.067 265.479 431.628C265.04 431.655 264.587 431.683 264.12 431.71C263.653 431.737 263.187 431.765 262.72 431.792V429.98H267.621L283.066 450.656C283.423 451.123 283.772 451.589 284.112 452.056C284.458 452.523 284.81 452.99 285.167 453.457H285.208L285.249 434.593C285.249 434.044 285.263 433.514 285.29 433.003C285.318 432.498 285.345 432.04 285.373 431.628C284.878 431.655 284.384 431.683 283.89 431.71C283.396 431.737 282.901 431.765 282.407 431.792V429.98H289.986V431.339C288.97 431.367 288.269 431.6 287.885 432.04C287.501 432.479 287.295 433.069 287.267 433.811C287.24 434.552 287.226 435.417 287.226 436.405L287.144 459.47ZM318.528 459.47H316.551L300.117 437.394C299.87 437.064 299.629 436.74 299.393 436.422C299.162 436.109 298.923 435.788 298.676 435.458H298.635L298.758 453.086C298.758 453.772 298.758 454.459 298.758 455.145C298.758 455.832 298.731 456.504 298.676 457.163C299.17 457.136 299.664 457.109 300.159 457.081C300.653 457.054 301.147 457.026 301.641 456.999V458.811H294.104V457.452C294.955 457.452 295.565 457.265 295.933 456.892C296.306 456.524 296.548 456.084 296.658 455.574C296.768 455.068 296.823 454.61 296.823 454.198L296.864 434.387C296.864 433.92 296.864 433.454 296.864 432.987C296.864 432.52 296.864 432.067 296.864 431.628C296.424 431.655 295.971 431.683 295.505 431.71C295.038 431.737 294.571 431.765 294.104 431.792V429.98H299.005L314.45 450.656C314.807 451.123 315.156 451.589 315.497 452.056C315.843 452.523 316.194 452.99 316.551 453.457H316.592L316.633 434.593C316.633 434.044 316.647 433.514 316.675 433.003C316.702 432.498 316.729 432.04 316.757 431.628C316.263 431.655 315.768 431.683 315.274 431.71C314.78 431.737 314.286 431.765 313.791 431.792V429.98H321.37V431.339C320.354 431.367 319.654 431.6 319.269 432.04C318.885 432.479 318.679 433.069 318.652 433.811C318.624 434.552 318.61 435.417 318.61 436.405L318.528 459.47ZM341.667 458.811H331.988V457.452C333.031 457.397 333.74 457.15 334.113 456.71C334.481 456.271 334.687 455.672 334.731 454.915C334.769 454.162 334.788 453.319 334.788 452.386L334.83 447.69L327.663 436.364C326.977 435.266 326.463 434.346 326.123 433.605C325.777 432.863 325.549 432.232 325.439 431.71C325 431.737 324.574 431.751 324.162 431.751C323.75 431.751 323.325 431.765 322.886 431.792V429.98H333.512V431.339C332.249 431.339 331.37 431.532 330.876 431.916C330.381 432.3 330.198 432.828 330.324 433.498C330.445 434.173 330.78 434.95 331.329 435.829L334.624 441.018C334.871 441.403 335.132 441.801 335.406 442.213C335.681 442.625 335.964 443.042 336.255 443.465C336.54 443.893 336.848 444.341 337.177 444.807H337.26C337.562 444.203 337.864 443.618 338.166 443.053C338.468 442.493 338.756 441.952 339.031 441.43L342.532 434.799C342.669 434.524 342.842 434.2 343.051 433.827C343.254 433.459 343.479 433.075 343.726 432.674C343.973 432.278 344.234 431.943 344.509 431.669C343.987 431.696 343.451 431.716 342.902 431.726C342.353 431.743 341.804 431.765 341.255 431.792V429.98H349.657V431.339C348.311 431.422 347.208 431.889 346.345 432.74C345.478 433.591 344.563 434.895 343.602 436.652C342.669 438.41 341.771 440.098 340.909 441.718C340.041 443.338 339.209 444.917 338.413 446.455C338.413 446.949 338.407 447.608 338.396 448.432C338.38 449.256 338.372 450.085 338.372 450.92C338.372 451.76 338.372 452.468 338.372 453.045C338.372 453.621 338.372 453.91 338.372 453.91C338.372 454.651 338.366 455.288 338.355 455.821C338.339 456.359 338.303 456.806 338.248 457.163C338.825 457.136 339.396 457.109 339.962 457.081C340.522 457.054 341.09 457.026 341.667 456.999V458.811Z" fill="white"/>
</g>
</g>
</g>
</g>
<g clip-path="url(#clip12_1_5)">
<g clip-path="url(#clip13_1_5)">
<path d="M326.844 158.586C321.97 154.914 316.701 153.057 311.187 153.057C311.066 153.057 310.947 153.057 310.826 153.059C310.709 153.057 310.588 153.057 310.468 153.057C309.983 153.057 309.503 153.089 309.024 153.117C309.473 152.719 309.916 152.31 310.339 151.876C314.39 147.94 316.885 142.816 317.755 136.641C317.843 136.024 317.637 135.405 317.196 134.967C316.756 134.528 316.137 134.322 315.521 134.408C309.349 135.278 304.223 137.774 300.289 141.826C299.857 142.246 299.452 142.686 299.054 143.133C299.09 142.536 299.115 141.938 299.106 141.335C299.188 135.688 297.328 130.301 293.578 125.317C293.205 124.822 292.62 124.529 292.001 124.529C291.379 124.529 290.794 124.822 290.42 125.317C286.671 130.299 284.812 135.688 284.893 141.335C284.884 141.938 284.909 142.535 284.944 143.133C284.547 142.687 284.141 142.246 283.709 141.826C279.776 137.774 274.651 135.278 268.477 134.408C267.859 134.322 267.241 134.528 266.803 134.967C266.364 135.408 266.156 136.027 266.242 136.641C267.113 142.816 269.608 147.941 273.659 151.876C274.081 152.31 274.525 152.718 274.974 153.117C274.494 153.09 274.013 153.057 273.529 153.057C273.408 153.057 273.289 153.057 273.169 153.059C273.05 153.057 272.931 153.057 272.808 153.057C267.294 153.057 262.026 154.914 257.153 158.586C256.658 158.959 256.365 159.544 256.365 160.164C256.365 160.787 256.656 161.37 257.153 161.744C262.027 165.414 267.295 167.272 272.811 167.272C272.931 167.272 273.05 167.272 273.169 167.269C273.289 167.272 273.421 167.263 273.528 167.272C274.014 167.272 274.495 167.239 274.978 167.212C274.528 167.611 274.085 168.019 273.663 168.455C269.611 172.389 267.115 177.515 266.243 183.687C266.156 184.303 266.364 184.921 266.804 185.36C267.177 185.734 267.681 185.941 268.202 185.941C268.293 185.941 268.386 185.934 268.479 185.921C274.653 185.05 279.778 182.554 283.711 178.503C284.143 178.083 284.55 177.641 284.946 177.195C284.911 177.793 284.886 178.391 284.895 178.994C284.813 184.642 286.673 190.029 290.422 195.012C290.796 195.508 291.383 195.801 292.003 195.801C292.623 195.801 293.208 195.508 293.581 195.012C297.331 190.029 299.191 184.642 299.108 178.994C299.117 178.392 299.093 177.794 299.057 177.197C299.454 177.643 299.858 178.086 300.292 178.503C304.225 182.554 309.35 185.049 315.523 185.921C315.616 185.934 315.709 185.941 315.8 185.941C316.319 185.941 316.825 185.734 317.199 185.36C317.639 184.92 317.845 184.303 317.757 183.687C316.888 177.513 314.391 172.387 310.34 168.455C309.918 168.019 309.473 167.611 309.024 167.212C309.506 167.238 309.986 167.272 310.472 167.272C310.592 167.272 310.711 167.272 310.829 167.269C310.948 167.272 311.068 167.272 311.187 167.272C311.185 167.272 311.188 167.272 311.187 167.272C316.702 167.272 321.972 165.414 326.846 161.744C327.342 161.37 327.634 160.787 327.634 160.164C327.632 159.544 327.341 158.959 326.844 158.586ZM290.628 159.612L291.998 158.245L293.365 159.612L291.998 160.98L290.628 159.612ZM303.062 144.645C303.077 144.629 303.092 144.615 303.106 144.6C305.82 141.798 309.241 139.874 313.304 138.859C312.29 142.92 310.366 146.342 307.564 149.056C307.548 149.07 307.533 149.087 307.519 149.101C304.804 151.904 301.384 153.828 297.322 154.842C298.336 150.781 300.26 147.357 303.062 144.645ZM288.845 141.304C288.784 137.404 289.842 133.623 291.998 130.035C294.153 133.623 295.212 137.404 295.15 141.303C295.15 141.325 295.15 141.346 295.15 141.368C295.213 145.267 294.153 149.046 291.998 152.635C289.842 149.046 288.785 145.268 288.845 141.367C288.845 141.346 288.845 141.325 288.845 141.304ZM270.693 138.859C274.755 139.873 278.176 141.797 280.888 144.6C280.904 144.615 280.919 144.629 280.933 144.645C283.736 147.357 285.661 150.779 286.673 154.842C282.613 153.828 279.191 151.904 276.476 149.099C276.462 149.085 276.446 149.07 276.432 149.055C273.63 146.342 271.706 142.922 270.693 138.859ZM273.199 163.317C273.189 163.317 273.179 163.317 273.168 163.317C273.158 163.317 273.147 163.317 273.136 163.317C273.028 163.319 272.92 163.321 272.81 163.321C269.026 163.321 265.357 162.262 261.867 160.165C265.356 158.07 269.025 157.012 272.807 157.012C272.917 157.012 273.027 157.012 273.136 157.014C273.157 157.015 273.179 157.015 273.199 157.014C273.309 157.012 273.418 157.012 273.528 157.012C277.309 157.012 280.98 158.069 284.468 160.165C280.978 162.262 277.308 163.321 273.525 163.321C273.416 163.321 273.307 163.319 273.199 163.317ZM280.935 175.685C280.919 175.701 280.904 175.713 280.888 175.729C278.176 178.53 274.755 180.455 270.693 181.471C271.705 177.41 273.629 173.989 276.432 171.272C276.447 171.258 276.462 171.244 276.478 171.228C279.191 168.427 282.612 166.503 286.674 165.488C285.66 169.551 283.736 172.972 280.935 175.685ZM295.15 179.026C295.213 182.927 294.153 186.706 291.998 190.296C289.842 186.706 288.785 182.927 288.845 179.026C288.845 179.003 288.845 178.984 288.845 178.964C288.784 175.063 289.842 171.283 291.998 167.694C294.153 171.283 295.212 175.063 295.15 178.964C295.15 178.984 295.15 179.003 295.15 179.026ZM313.303 181.471C309.242 180.456 305.821 178.532 303.105 175.732C303.09 175.716 303.077 175.701 303.062 175.685C300.26 172.972 298.336 169.551 297.322 165.488C301.383 166.502 304.804 168.426 307.517 171.228C307.533 171.244 307.547 171.258 307.562 171.272C310.365 173.988 312.288 177.407 313.303 181.471ZM311.184 163.321C311.076 163.321 310.968 163.319 310.859 163.317C310.848 163.317 310.836 163.317 310.826 163.317C310.816 163.317 310.806 163.317 310.795 163.317C310.687 163.319 310.579 163.321 310.469 163.321C306.685 163.321 303.016 162.262 299.528 160.165C303.016 158.07 306.684 157.012 310.468 157.012C310.578 157.012 310.687 157.012 310.795 157.014C310.817 157.015 310.839 157.015 310.86 157.014C310.969 157.012 311.079 157.012 311.188 157.012C314.971 157.012 318.641 158.069 322.129 160.165C318.64 162.261 314.97 163.321 311.184 163.321Z" fill="white"/>
<path d="M310.827 162.755C312.258 162.755 313.417 161.595 313.417 160.165C313.417 158.735 312.258 157.576 310.827 157.576C309.397 157.576 308.238 158.735 308.238 160.165C308.238 161.595 309.397 162.755 310.827 162.755Z" fill="white"/>
<path d="M273.168 162.755C274.599 162.755 275.758 161.595 275.758 160.165C275.758 158.735 274.599 157.576 273.168 157.576C271.738 157.576 270.579 158.735 270.579 160.165C270.579 161.595 271.738 162.755 273.168 162.755Z" fill="white"/>
<path d="M291.997 181.585C293.428 181.585 294.587 180.426 294.587 178.995C294.587 177.565 293.428 176.406 291.997 176.406C290.567 176.406 289.408 177.565 289.408 178.995C289.408 180.426 290.567 181.585 291.997 181.585Z" fill="white"/>
<path d="M291.997 143.925C293.428 143.925 294.587 142.765 294.587 141.335C294.587 139.905 293.428 138.746 291.997 138.746C290.567 138.746 289.408 139.905 289.408 141.335C289.408 142.765 290.567 143.925 291.997 143.925Z" fill="white"/>
<path d="M305.313 176.068C306.743 176.068 307.902 174.909 307.902 173.479C307.902 172.049 306.743 170.889 305.313 170.889C303.883 170.889 302.723 172.049 302.723 173.479C302.723 174.909 303.883 176.068 305.313 176.068Z" fill="white"/>
<path d="M278.683 149.44C280.113 149.44 281.272 148.281 281.272 146.851C281.272 145.421 280.113 144.261 278.683 144.261C277.253 144.261 276.093 145.421 276.093 146.851C276.093 148.281 277.253 149.44 278.683 149.44Z" fill="white"/>
<path d="M278.683 176.068C280.113 176.068 281.272 174.909 281.272 173.479C281.272 172.049 280.113 170.889 278.683 170.889C277.253 170.889 276.093 172.049 276.093 173.479C276.093 174.909 277.253 176.068 278.683 176.068Z" fill="white"/>
<path d="M305.313 149.44C306.743 149.44 307.902 148.281 307.902 146.851C307.902 145.421 306.743 144.261 305.313 144.261C303.883 144.261 302.723 145.421 302.723 146.851C302.723 148.281 303.883 149.44 305.313 149.44Z" fill="white"/>
</g>
</g>
</g>
</g>
</g>
</g>
</g>
</g>
<defs>
<clipPath id="clip0_1_5">
<rect width="584" height="584" fill="white"/>
</clipPath>
<clipPath id="clip1_1_5">
<rect width="583.833" height="583.833" fill="white" transform="translate(0.0830688 0.0830688)"/>
</clipPath>
<clipPath id="clip2_1_5">
<rect width="583.833" height="583.833" fill="white" transform="translate(0.0830688 0.0830688)"/>
</clipPath>
<clipPath id="clip3_1_5">
<rect width="115.323" height="334.94" fill="white" transform="translate(234.338 124.529)"/>
</clipPath>
<clipPath id="clip4_1_5">
<rect width="115.323" height="334.94" fill="white" transform="translate(234.338 124.529)"/>
</clipPath>
<clipPath id="clip5_1_5">
<rect width="115.323" height="334.94" fill="white" transform="translate(234.338 124.529)"/>
</clipPath>
<clipPath id="clip6_1_5">
<rect width="115.323" height="226.241" fill="white" transform="translate(234.338 233.229)"/>
</clipPath>
<clipPath id="clip7_1_5">
<rect width="115.323" height="226.241" fill="white" transform="translate(234.338 233.229)"/>
</clipPath>
<clipPath id="clip8_1_5">
<rect width="115.323" height="158.541" fill="white" transform="translate(234.338 233.229)"/>
</clipPath>
<clipPath id="clip9_1_5">
<rect width="115.323" height="158.541" fill="white" transform="translate(234.338 233.229)"/>
</clipPath>
<clipPath id="clip10_1_5">
<rect width="115.323" height="30.2723" fill="white" transform="translate(234.338 429.198)"/>
</clipPath>
<clipPath id="clip11_1_5">
<rect width="115.323" height="30.2723" fill="white" transform="translate(234.338 429.198)"/>
</clipPath>
<clipPath id="clip12_1_5">
<rect width="71.2696" height="71.2718" fill="white" transform="translate(256.365 124.529)"/>
</clipPath>
<clipPath id="clip13_1_5">
<rect width="71.2696" height="71.2718" fill="white" transform="translate(256.365 124.529)"/>
</clipPath>
</defs>
</svg>
