<svg width="30" height="30" viewBox="0 0 30 30" fill="none" xmlns="http://www.w3.org/2000/svg">
<path fill-rule="evenodd" clip-rule="evenodd" d="M15.0003 0.625C11.4393 0.626848 7.99513 1.88807 5.28356 4.18315C2.57198 6.47823 0.769849 9.65751 0.1994 13.1525C-0.371048 16.6475 0.327378 20.2303 2.16981 23.2602C4.01224 26.2902 6.87852 28.5697 10.2561 29.6912C11.0013 29.8295 11.282 29.3677 11.282 28.975C11.282 28.5823 11.2671 27.4438 11.2621 26.199C7.08921 27.1005 6.20745 24.4381 6.20745 24.4381C5.52687 22.7093 4.54327 22.2549 4.54327 22.2549C3.18211 21.3312 4.64511 21.3485 4.64511 21.3485C6.15281 21.4547 6.94516 22.8871 6.94516 22.8871C8.28148 25.1667 10.4548 24.5073 11.3093 24.122C11.4434 23.1563 11.8334 22.4994 12.2631 22.1264C8.92976 21.751 5.42752 20.4717 5.42752 14.7568C5.40686 13.2746 5.96 11.8413 6.97248 10.7534C6.81848 10.378 6.30432 8.86154 7.11902 6.80179C7.11902 6.80179 8.37835 6.40169 11.2447 8.33055C13.7033 7.66203 16.2973 7.66203 18.7559 8.33055C21.6198 6.40169 22.8766 6.80179 22.8766 6.80179C23.6938 8.8566 23.1796 10.373 23.0256 10.7534C24.0413 11.8415 24.5956 13.2773 24.5731 14.7617C24.5731 20.489 21.0634 21.751 17.7251 22.119C18.2616 22.5833 18.741 23.4897 18.741 24.8827C18.741 26.8782 18.7236 28.4835 18.7236 28.975C18.7236 29.3726 18.9943 29.8369 19.7544 29.6912C23.1324 28.5696 25.999 26.2896 27.8414 23.2592C29.6838 20.2287 30.3818 16.6454 29.8107 13.1501C29.2396 9.65475 27.4366 6.47544 24.7241 4.18076C22.0117 1.88607 18.5667 0.625676 15.0053 0.625H15.0003Z" fill="white"/>
</svg>
